<mxfile host="65bd71144e">
    <diagram id="-dSKSIrgSh9ck7ew1VYO" name="Pagina-1">
        <mxGraphModel dx="1326" dy="702" grid="1" gridSize="10" guides="1" tooltips="1" connect="1" arrows="1" fold="1" page="1" pageScale="1" pageWidth="827" pageHeight="1169" math="0" shadow="0">
            <root>
                <mxCell id="0"/>
                <mxCell id="1" parent="0"/>
                <mxCell id="2" value="" style="swimlane;startSize=0;fillColor=default;fontColor=#333333;strokeColor=#666666;gradientColor=none;" vertex="1" parent="1">
                    <mxGeometry x="100" y="70" width="650" height="680" as="geometry"/>
                </mxCell>
                <mxCell id="3" value="Barter items" style="ellipse;whiteSpace=wrap;html=1;fillColor=default;" vertex="1" parent="2">
                    <mxGeometry x="70" y="400" width="120" height="60" as="geometry"/>
                </mxCell>
                <mxCell id="4" value="Make offer" style="ellipse;whiteSpace=wrap;html=1;fillColor=default;" vertex="1" parent="2">
                    <mxGeometry x="230" y="450" width="120" height="60" as="geometry"/>
                </mxCell>
                <mxCell id="5" value="&lt;div&gt;Include&lt;/div&gt;" style="endArrow=none;endSize=16;endFill=0;html=1;rounded=0;curved=0;strokeColor=default;startArrow=open;startFill=0;entryX=1;entryY=0.5;entryDx=0;entryDy=0;exitX=0;exitY=0;exitDx=0;exitDy=0;" edge="1" parent="2" source="4" target="3">
                    <mxGeometry width="160" relative="1" as="geometry">
                        <mxPoint x="220" y="560" as="sourcePoint"/>
                        <mxPoint x="380" y="560" as="targetPoint"/>
                    </mxGeometry>
                </mxCell>
                <mxCell id="6" value="Organize shipping" style="ellipse;whiteSpace=wrap;html=1;fillColor=default;" vertex="1" parent="2">
                    <mxGeometry x="310" y="300" width="120" height="60" as="geometry"/>
                </mxCell>
                <mxCell id="7" value="Extend" style="endArrow=none;endSize=16;endFill=0;html=1;rounded=0;curved=0;strokeColor=default;startArrow=open;startFill=0;entryX=0;entryY=1;entryDx=0;entryDy=0;exitX=1;exitY=0;exitDx=0;exitDy=0;" edge="1" parent="2" source="3" target="6">
                    <mxGeometry width="160" relative="1" as="geometry">
                        <mxPoint x="210" y="360" as="sourcePoint"/>
                        <mxPoint x="232" y="295" as="targetPoint"/>
                    </mxGeometry>
                </mxCell>
                <mxCell id="8" value="Send chat message" style="ellipse;whiteSpace=wrap;html=1;fillColor=default;" vertex="1" parent="2">
                    <mxGeometry x="100" y="570" width="120" height="60" as="geometry"/>
                </mxCell>
                <mxCell id="9" value="Extend" style="endArrow=none;endSize=16;endFill=0;html=1;rounded=0;curved=0;strokeColor=default;startArrow=open;startFill=0;entryX=0.5;entryY=0;entryDx=0;entryDy=0;exitX=0;exitY=1;exitDx=0;exitDy=0;" edge="1" parent="2" source="4" target="8">
                    <mxGeometry width="160" relative="1" as="geometry">
                        <mxPoint x="320" y="630" as="sourcePoint"/>
                        <mxPoint x="280" y="480" as="targetPoint"/>
                    </mxGeometry>
                </mxCell>
                <mxCell id="10" value="Login" style="ellipse;whiteSpace=wrap;html=1;fillColor=default;" vertex="1" parent="2">
                    <mxGeometry x="440" y="600" width="120" height="60" as="geometry"/>
                </mxCell>
                <mxCell id="11" value="&lt;div&gt;Include&lt;/div&gt;" style="endArrow=none;endSize=16;endFill=0;html=1;rounded=0;curved=0;strokeColor=default;startArrow=open;startFill=0;entryX=1;entryY=1;entryDx=0;entryDy=0;exitX=0;exitY=0;exitDx=0;exitDy=0;" edge="1" parent="2" source="10" target="4">
                    <mxGeometry width="160" relative="1" as="geometry">
                        <mxPoint x="520" y="530" as="sourcePoint"/>
                        <mxPoint x="362.42640687119297" y="638.7867965644035" as="targetPoint"/>
                    </mxGeometry>
                </mxCell>
                <mxCell id="12" value="Login with Instagram" style="ellipse;whiteSpace=wrap;html=1;fillColor=default;" vertex="1" parent="2">
                    <mxGeometry x="480" y="490" width="120" height="60" as="geometry"/>
                </mxCell>
                <mxCell id="13" value="Extend" style="endArrow=none;endSize=16;endFill=0;html=1;rounded=0;curved=0;strokeColor=default;startArrow=open;startFill=0;entryX=0.5;entryY=1;entryDx=0;entryDy=0;exitX=0.5;exitY=0;exitDx=0;exitDy=0;" edge="1" parent="2" source="10" target="12">
                    <mxGeometry width="160" relative="1" as="geometry">
                        <mxPoint x="520" y="560" as="sourcePoint"/>
                        <mxPoint x="564" y="510" as="targetPoint"/>
                    </mxGeometry>
                </mxCell>
                <mxCell id="14" value="Balance Barter" style="ellipse;whiteSpace=wrap;html=1;fillColor=default;" vertex="1" parent="2">
                    <mxGeometry x="400" y="420" width="120" height="60" as="geometry"/>
                </mxCell>
                <mxCell id="15" value="Extend" style="endArrow=none;endSize=16;endFill=0;html=1;rounded=0;curved=0;strokeColor=default;startArrow=open;startFill=0;entryX=0;entryY=0.5;entryDx=0;entryDy=0;exitX=1;exitY=0;exitDx=0;exitDy=0;" edge="1" parent="2" source="4" target="14">
                    <mxGeometry width="160" relative="1" as="geometry">
                        <mxPoint x="540" y="400" as="sourcePoint"/>
                        <mxPoint x="572" y="355" as="targetPoint"/>
                    </mxGeometry>
                </mxCell>
                <mxCell id="16" value="Manage announcements*" style="ellipse;whiteSpace=wrap;html=1;fillColor=default;" vertex="1" parent="2">
                    <mxGeometry x="50" y="320" width="120" height="60" as="geometry"/>
                </mxCell>
                <mxCell id="17" value="Check shipping status*" style="ellipse;whiteSpace=wrap;html=1;fillColor=default;" vertex="1" parent="2">
                    <mxGeometry x="160" y="250" width="120" height="60" as="geometry"/>
                </mxCell>
                <mxCell id="18" value="Activate Escrow" style="ellipse;whiteSpace=wrap;html=1;fillColor=default;" vertex="1" parent="2">
                    <mxGeometry x="430" y="350" width="120" height="60" as="geometry"/>
                </mxCell>
                <mxCell id="19" value="Extend" style="endArrow=none;endSize=16;endFill=0;html=1;rounded=0;curved=0;strokeColor=default;startArrow=open;startFill=0;entryX=0;entryY=0.5;entryDx=0;entryDy=0;exitX=0.5;exitY=0;exitDx=0;exitDy=0;" edge="1" parent="2" source="4" target="18">
                    <mxGeometry width="160" relative="1" as="geometry">
                        <mxPoint x="370" y="400" as="sourcePoint"/>
                        <mxPoint x="456" y="412" as="targetPoint"/>
                    </mxGeometry>
                </mxCell>
                <mxCell id="20" value="Report user*" style="ellipse;whiteSpace=wrap;html=1;fillColor=default;" vertex="1" parent="2">
                    <mxGeometry x="40" y="170" width="120" height="60" as="geometry"/>
                </mxCell>
                <mxCell id="21" value="Donate*" style="ellipse;whiteSpace=wrap;html=1;fillColor=default;" vertex="1" parent="2">
                    <mxGeometry x="200" y="140" width="120" height="60" as="geometry"/>
                </mxCell>
                <mxCell id="22" value="&lt;div&gt;Include&lt;/div&gt;" style="endArrow=none;endSize=16;endFill=0;html=1;rounded=0;curved=0;strokeColor=default;startArrow=open;startFill=0;entryX=1;entryY=1;entryDx=0;entryDy=0;exitX=0.5;exitY=0;exitDx=0;exitDy=0;" edge="1" parent="2" source="6" target="21">
                    <mxGeometry width="160" relative="1" as="geometry">
                        <mxPoint x="456" y="230" as="sourcePoint"/>
                        <mxPoint x="330" y="122" as="targetPoint"/>
                    </mxGeometry>
                </mxCell>
                <mxCell id="23" value="Offerer" style="shape=umlActor;verticalLabelPosition=bottom;verticalAlign=top;html=1;outlineConnect=0;fillColor=default;" vertex="1" parent="1">
                    <mxGeometry x="60" y="545" width="30" height="60" as="geometry"/>
                </mxCell>
                <mxCell id="24" value="Receiver" style="shape=umlActor;verticalLabelPosition=bottom;verticalAlign=top;html=1;outlineConnect=0;fillColor=default;" vertex="1" parent="1">
                    <mxGeometry x="10" y="545" width="30" height="60" as="geometry"/>
                </mxCell>
                <mxCell id="25" value="User" style="shape=umlActor;verticalLabelPosition=bottom;verticalAlign=top;html=1;outlineConnect=0;fillColor=default;" vertex="1" parent="1">
                    <mxGeometry x="30" y="390" width="30" height="60" as="geometry"/>
                </mxCell>
                <mxCell id="26" value="&lt;div&gt;ShipStation&amp;nbsp;&lt;/div&gt;&lt;div&gt;API&lt;/div&gt;" style="shape=umlActor;verticalLabelPosition=bottom;verticalAlign=top;html=1;outlineConnect=0;fillColor=default;" vertex="1" parent="1">
                    <mxGeometry x="780" y="240" width="30" height="60" as="geometry"/>
                </mxCell>
                <mxCell id="27" value="&lt;b&gt;Bartrify&lt;/b&gt;" style="text;html=1;strokeColor=none;fillColor=none;align=center;verticalAlign=middle;whiteSpace=wrap;rounded=0;" vertex="1" parent="1">
                    <mxGeometry x="370" y="40" width="60" height="30" as="geometry"/>
                </mxCell>
                <mxCell id="28" value="" style="shape=flexArrow;endArrow=classic;html=1;rounded=0;" edge="1" parent="1">
                    <mxGeometry width="50" height="50" relative="1" as="geometry">
                        <mxPoint x="45" y="525" as="sourcePoint"/>
                        <mxPoint x="45" y="475" as="targetPoint"/>
                    </mxGeometry>
                </mxCell>
                <mxCell id="29" value="" style="endArrow=none;html=1;rounded=0;edgeStyle=orthogonalEdgeStyle;exitX=0.5;exitY=0;exitDx=0;exitDy=0;exitPerimeter=0;entryX=0.5;entryY=0;entryDx=0;entryDy=0;entryPerimeter=0;" edge="1" parent="1" source="24" target="23">
                    <mxGeometry width="50" height="50" relative="1" as="geometry">
                        <mxPoint x="20" y="525" as="sourcePoint"/>
                        <mxPoint x="70" y="535" as="targetPoint"/>
                        <Array as="points">
                            <mxPoint x="25" y="525"/>
                            <mxPoint x="75" y="525"/>
                        </Array>
                    </mxGeometry>
                </mxCell>
                <mxCell id="30" value="" style="endArrow=block;html=1;rounded=0;exitX=1;exitY=0.3333333333333333;exitDx=0;exitDy=0;exitPerimeter=0;entryX=0;entryY=0.5;entryDx=0;entryDy=0;endFill=1;" edge="1" parent="1" source="23" target="3">
                    <mxGeometry width="50" height="50" relative="1" as="geometry">
                        <mxPoint x="400" y="425" as="sourcePoint"/>
                        <mxPoint x="180" y="505" as="targetPoint"/>
                    </mxGeometry>
                </mxCell>
                <mxCell id="31" style="rounded=0;orthogonalLoop=1;jettySize=auto;html=1;entryX=1;entryY=0.5;entryDx=0;entryDy=0;endArrow=block;endFill=0;exitX=0;exitY=0.3333333333333333;exitDx=0;exitDy=0;exitPerimeter=0;" edge="1" parent="1" source="26" target="6">
                    <mxGeometry relative="1" as="geometry">
                        <mxPoint x="620" y="110" as="sourcePoint"/>
                        <mxPoint x="542" y="71" as="targetPoint"/>
                    </mxGeometry>
                </mxCell>
                <mxCell id="32" value="Instagram" style="shape=umlActor;verticalLabelPosition=bottom;verticalAlign=top;html=1;outlineConnect=0;fillColor=default;" vertex="1" parent="1">
                    <mxGeometry x="780" y="615" width="30" height="60" as="geometry"/>
                </mxCell>
                <mxCell id="33" style="rounded=0;orthogonalLoop=1;jettySize=auto;html=1;entryX=1;entryY=0.5;entryDx=0;entryDy=0;endArrow=block;endFill=0;exitX=0;exitY=0.3333333333333333;exitDx=0;exitDy=0;exitPerimeter=0;" edge="1" parent="1" source="32" target="12">
                    <mxGeometry relative="1" as="geometry">
                        <mxPoint x="760" y="490" as="sourcePoint"/>
                        <mxPoint x="923" y="391" as="targetPoint"/>
                    </mxGeometry>
                </mxCell>
                <mxCell id="34" value="Paypal" style="shape=umlActor;verticalLabelPosition=bottom;verticalAlign=top;html=1;outlineConnect=0;fillColor=default;" vertex="1" parent="1">
                    <mxGeometry x="780" y="480" width="30" height="60" as="geometry"/>
                </mxCell>
                <mxCell id="35" style="rounded=0;orthogonalLoop=1;jettySize=auto;html=1;entryX=1;entryY=0.5;entryDx=0;entryDy=0;endArrow=block;endFill=0;exitX=0;exitY=0.3333333333333333;exitDx=0;exitDy=0;exitPerimeter=0;" edge="1" parent="1" source="34" target="14">
                    <mxGeometry relative="1" as="geometry">
                        <mxPoint x="740" y="270" as="sourcePoint"/>
                        <mxPoint x="460" y="300" as="targetPoint"/>
                    </mxGeometry>
                </mxCell>
                <mxCell id="36" value="" style="endArrow=block;html=1;rounded=0;exitX=1;exitY=0.3333333333333333;exitDx=0;exitDy=0;exitPerimeter=0;entryX=0;entryY=0.5;entryDx=0;entryDy=0;endFill=1;" edge="1" parent="1" source="25" target="16">
                    <mxGeometry width="50" height="50" relative="1" as="geometry">
                        <mxPoint x="115" y="420" as="sourcePoint"/>
                        <mxPoint x="125" y="680" as="targetPoint"/>
                    </mxGeometry>
                </mxCell>
                <mxCell id="37" value="" style="endArrow=block;html=1;rounded=0;exitX=1;exitY=0.3333333333333333;exitDx=0;exitDy=0;exitPerimeter=0;entryX=0;entryY=0.5;entryDx=0;entryDy=0;endFill=1;" edge="1" parent="1" source="25" target="17">
                    <mxGeometry width="50" height="50" relative="1" as="geometry">
                        <mxPoint x="70" y="90" as="sourcePoint"/>
                        <mxPoint x="210" y="60" as="targetPoint"/>
                    </mxGeometry>
                </mxCell>
                <mxCell id="38" style="rounded=0;orthogonalLoop=1;jettySize=auto;html=1;entryX=1;entryY=0.5;entryDx=0;entryDy=0;endArrow=block;endFill=0;exitX=0;exitY=0.3333333333333333;exitDx=0;exitDy=0;exitPerimeter=0;" edge="1" parent="1" source="26" target="17">
                    <mxGeometry relative="1" as="geometry">
                        <mxPoint x="630" y="100" as="sourcePoint"/>
                        <mxPoint x="380" y="130" as="targetPoint"/>
                    </mxGeometry>
                </mxCell>
                <mxCell id="39" style="rounded=0;orthogonalLoop=1;jettySize=auto;html=1;entryX=1;entryY=0.5;entryDx=0;entryDy=0;endArrow=block;endFill=0;exitX=0;exitY=0.3333333333333333;exitDx=0;exitDy=0;exitPerimeter=0;" edge="1" parent="1" source="34" target="18">
                    <mxGeometry relative="1" as="geometry">
                        <mxPoint x="780" y="250" as="sourcePoint"/>
                        <mxPoint x="550" y="250" as="targetPoint"/>
                    </mxGeometry>
                </mxCell>
                <mxCell id="40" value="" style="endArrow=block;html=1;rounded=0;entryX=0;entryY=1;entryDx=0;entryDy=0;endFill=0;" edge="1" parent="1">
                    <mxGeometry width="50" height="50" relative="1" as="geometry">
                        <mxPoint x="25" y="630" as="sourcePoint"/>
                        <mxPoint x="197.57359312880726" y="526.2132034355964" as="targetPoint"/>
                        <Array as="points">
                            <mxPoint x="25" y="690"/>
                        </Array>
                    </mxGeometry>
                </mxCell>
                <mxCell id="41" value="Escrow.com" style="shape=umlActor;verticalLabelPosition=bottom;verticalAlign=top;html=1;outlineConnect=0;fillColor=default;" vertex="1" parent="1">
                    <mxGeometry x="780" y="370" width="30" height="60" as="geometry"/>
                </mxCell>
                <mxCell id="42" style="rounded=0;orthogonalLoop=1;jettySize=auto;html=1;entryX=1;entryY=0;entryDx=0;entryDy=0;endArrow=block;endFill=0;exitX=0;exitY=0.3333333333333333;exitDx=0;exitDy=0;exitPerimeter=0;" edge="1" parent="1" source="41" target="18">
                    <mxGeometry relative="1" as="geometry">
                        <mxPoint x="700" y="410" as="sourcePoint"/>
                        <mxPoint x="570" y="370" as="targetPoint"/>
                    </mxGeometry>
                </mxCell>
                <mxCell id="43" value="" style="endArrow=block;html=1;rounded=0;exitX=1;exitY=0.3333333333333333;exitDx=0;exitDy=0;exitPerimeter=0;entryX=0;entryY=1;entryDx=0;entryDy=0;endFill=1;" edge="1" parent="1" source="25" target="20">
                    <mxGeometry width="50" height="50" relative="1" as="geometry">
                        <mxPoint x="180" y="310" as="sourcePoint"/>
                        <mxPoint x="405" y="250" as="targetPoint"/>
                    </mxGeometry>
                </mxCell>
                <mxCell id="44" value="Moderator" style="shape=umlActor;verticalLabelPosition=bottom;verticalAlign=top;html=1;outlineConnect=0;fillColor=default;" vertex="1" parent="1">
                    <mxGeometry x="30" y="200" width="30" height="60" as="geometry"/>
                </mxCell>
                <mxCell id="45" value="" style="endArrow=block;html=1;rounded=0;exitX=1;exitY=0.3333333333333333;exitDx=0;exitDy=0;exitPerimeter=0;entryX=0;entryY=0.5;entryDx=0;entryDy=0;endFill=0;" edge="1" parent="1" source="44" target="20">
                    <mxGeometry width="50" height="50" relative="1" as="geometry">
                        <mxPoint x="160" y="220" as="sourcePoint"/>
                        <mxPoint x="363" y="91" as="targetPoint"/>
                    </mxGeometry>
                </mxCell>
                <mxCell id="46" value="" style="endArrow=block;html=1;rounded=0;entryX=0;entryY=1;entryDx=0;entryDy=0;endFill=1;" edge="1" parent="1" target="21">
                    <mxGeometry width="50" height="50" relative="1" as="geometry">
                        <mxPoint x="60" y="410" as="sourcePoint"/>
                        <mxPoint x="545" y="70" as="targetPoint"/>
                    </mxGeometry>
                </mxCell>
                <mxCell id="47" value="&lt;div&gt;Beneficiary&lt;/div&gt;&lt;div&gt;Entity&lt;br&gt;&lt;/div&gt;" style="shape=umlActor;verticalLabelPosition=bottom;verticalAlign=top;html=1;outlineConnect=0;fillColor=default;" vertex="1" parent="1">
                    <mxGeometry x="30" y="90" width="30" height="60" as="geometry"/>
                </mxCell>
                <mxCell id="48" value="" style="endArrow=block;html=1;rounded=0;exitX=1;exitY=0.3333333333333333;exitDx=0;exitDy=0;exitPerimeter=0;entryX=0;entryY=0;entryDx=0;entryDy=0;endFill=0;" edge="1" parent="1" source="47" target="21">
                    <mxGeometry width="50" height="50" relative="1" as="geometry">
                        <mxPoint x="160" y="190" as="sourcePoint"/>
                        <mxPoint x="245" y="190" as="targetPoint"/>
                    </mxGeometry>
                </mxCell>
                <mxCell id="49" value="" style="endArrow=block;html=1;rounded=0;exitX=1;exitY=0.3333333333333333;exitDx=0;exitDy=0;exitPerimeter=0;entryX=0;entryY=0.5;entryDx=0;entryDy=0;endFill=0;" edge="1" parent="1" source="44" target="21">
                    <mxGeometry width="50" height="50" relative="1" as="geometry">
                        <mxPoint x="150" y="190" as="sourcePoint"/>
                        <mxPoint x="398" y="299" as="targetPoint"/>
                    </mxGeometry>
                </mxCell>
                <mxCell id="50" value="*: Include Login" style="text;html=1;align=center;verticalAlign=middle;resizable=0;points=[];autosize=1;strokeColor=none;fillColor=none;" vertex="1" parent="1">
                    <mxGeometry x="100" y="768" width="110" height="30" as="geometry"/>
                </mxCell>
            </root>
        </mxGraphModel>
    </diagram>
</mxfile>